# xmcd
#
# Track frame offsets: 
#        150
#        19052
#        35344
#        50929
#        65573
#        79852
#        95422
#        106579
#        126013
#        143412
#        157727
#        172527
#        187846
#        203698
#        218455
#        237157
#        254673
#        271110
#        285842
#        301239
#        315479
#        332211
#
# Disc length: 4646 seconds
#
# Revision: 0
# Processed by: cddbd v1.5.2PL0 Copyright (c) Steve Scherf et al.
# Submitted via: ExactAudioCopy v1.3
#
DISCID=16122416
DTITLE=Various Artist - Hit Country Weekend
DYEAR=2016
DGENRE=Country
TTITLE0=Chris Stapleton - Parachute
TTITLE1=Maddie and Tae - Fly
TTITLE2=Travis Collins - Just Another Girl
TTITLE3=Brandy Clark - Stripes
TTITLE4=David Nail - Nights on Fire
TTITLE5=Old Dominion - Break Up With Him
TTITLE6=Shane Nicholson - Weight of the World
TTITLE7=Beccy Cole - Waitress
TTITLE8=Cam - Burning House
TTITLE9=Chris Young - Who I Am With You
TTITLE10=Sara Storer - Calling Me Home
TTITLE11=Troy Cassar-Daley - This Day
TTITLE12=Kip Moore - Running for You
TTITLE13=Ashley Monroe - Bombshell
TTITLE14=Adam Eckersley Band - For You
TTITLE15=Catherine Britt - What I Did Last Night
TTITLE16=Lee Brice - I Dont Dance
TTITLE17=Cole Swindell - Chillin It
TTITLE18=Ruby Boots - Wrap Me in a Fever
TTITLE19=Michael Ray - Real Men Love Jesus
TTITLE20=Kaylens Rain - Firefly Summer
TTITLE21=Brothers Osborne - 21 Summer
EXTD=
EXTT0=
EXTT1=
EXTT2=
EXTT3=
EXTT4=
EXTT5=
EXTT6=
EXTT7=
EXTT8=
EXTT9=
EXTT10=
EXTT11=
EXTT12=
EXTT13=
EXTT14=
EXTT15=
EXTT16=
EXTT17=
EXTT18=
EXTT19=
EXTT20=
EXTT21=
PLAYORDER=
